HIERARCHY
ROOT Hips
{
	OFFSET 0.000000 0.000000 0.000000
	CHANNELS 6 Xposition Yposition Zposition Xrotation Yrotation Zrotation
	JOINT LeftUpLeg_virtual
	{
		OFFSET 0.000000 0.000000 0.000000
		CHANNELS 3 Xrotation Yrotation Zrotation
		JOINT LeftUpLeg
		{
			OFFSET 13.026900 -6.336304 -1.092800
			CHANNELS 3 Xrotation Yrotation Zrotation
			JOINT LeftLeg
			{
				OFFSET 0.524474 -46.096886 9.782700
				CHANNELS 3 Xrotation Yrotation Zrotation
				JOINT LeftFoot
				{
					OFFSET -0.524474 -53.427422 -12.948200
					CHANNELS 3 Xrotation Yrotation Zrotation
					JOINT LeftToeBase
					{
						OFFSET 0.192200 -14.009700 16.364100
						CHANNELS 3 Xrotation Yrotation Zrotation
						JOINT LeftToe_End
						{
							OFFSET -1.784700 -0.561700 9.474800
							CHANNELS 3 Xrotation Yrotation Zrotation
							End Site
							{
								OFFSET 0 0 0
							}
						}
					}
				}
			}
		}
	}
	JOINT RightUpLeg_virtual
	{
		OFFSET 0.000000 0.000000 0.000000
		CHANNELS 3 Xrotation Yrotation Zrotation
		JOINT RightUpLeg
		{
			OFFSET -12.883000 -6.336304 -1.092800
			CHANNELS 3 Xrotation Yrotation Zrotation
			JOINT RightLeg
			{
				OFFSET -0.524587 -46.096825 9.782800
				CHANNELS 3 Xrotation Yrotation Zrotation
				JOINT RightFoot
				{
					OFFSET 0.524587 -53.427383 -12.948300
					CHANNELS 3 Xrotation Yrotation Zrotation
					JOINT RightToeBase
					{
						OFFSET -0.192200 -14.009700 16.364100
						CHANNELS 3 Xrotation Yrotation Zrotation
						JOINT RightToe_End
						{
							OFFSET 1.784700 -0.561700 9.474800
							CHANNELS 3 Xrotation Yrotation Zrotation
							End Site
							{
								OFFSET 0 0 0
							}
						}
					}
				}
			}
		}
	}
	JOINT Spine_virtual
	{
		OFFSET 0.000000 0.000000 0.000000
		CHANNELS 3 Xrotation Yrotation Zrotation
		JOINT Spine
		{
			OFFSET 0.072000 7.257294 -0.789700
			CHANNELS 3 Xrotation Yrotation Zrotation
			JOINT Spine1
			{
				OFFSET 0.000000 12.508769 -0.658067
				CHANNELS 3 Xrotation Yrotation Zrotation
				JOINT Spine1_split
				{
					OFFSET 0.000000 12.508769 -0.658067
					CHANNELS 3 Xrotation Yrotation Zrotation
					JOINT Spine2
					{
						OFFSET 0.000000 12.508769 -0.658067
						CHANNELS 3 Xrotation Yrotation Zrotation
						JOINT Neck_virtual
						{
							OFFSET 0.000000 0.000000 0.000000
							CHANNELS 3 Xrotation Yrotation Zrotation
							JOINT Neck
							{
								OFFSET 0.000000 14.033295 7.520400
								CHANNELS 3 Xrotation Yrotation Zrotation
								JOINT Head
								{
									OFFSET 0.000000 8.198502 5.703100
									CHANNELS 3 Xrotation Yrotation Zrotation
									JOINT HeadTop_End
									{
										OFFSET 0.000000 17.760803 13.332701
										CHANNELS 3 Xrotation Yrotation Zrotation
										End Site
										{
											OFFSET 0 0 0
										}
									}
								}
							}
						}
						JOINT LeftShoulder_virtual
						{
							OFFSET 0.000000 0.000000 0.000000
							CHANNELS 3 Xrotation Yrotation Zrotation
							JOINT LeftShoulder
							{
								OFFSET 6.292450 5.785301 -0.669000
								CHANNELS 3 Xrotation Yrotation Zrotation
								JOINT LeftShoulder_split
								{
									OFFSET 6.292450 5.785301 -0.669000
									CHANNELS 3 Xrotation Yrotation Zrotation
									JOINT LeftArm
									{
										OFFSET 13.907140 -6.093903 1.965100
										CHANNELS 3 Xrotation Yrotation Zrotation
										JOINT LeftForeArm
										{
											OFFSET 34.140198 0.000000 0.000000
											CHANNELS 3 Xrotation Yrotation Zrotation
											JOINT LeftHand
											{
												OFFSET 40.960209 0.000000 0.000000
												CHANNELS 3 Xrotation Yrotation Zrotation
												End Site
												{
													OFFSET 0 0 0
												}
											}
										}
									}
								}
							}
						}
						JOINT RightShoulder_virtual
						{
							OFFSET 0.000000 0.000000 0.000000
							CHANNELS 3 Xrotation Yrotation Zrotation
							JOINT RightShoulder
							{
								OFFSET -6.292450 5.785301 -0.669000
								CHANNELS 3 Xrotation Yrotation Zrotation
								JOINT RightShoulder_split
								{
									OFFSET -6.292450 5.785301 -0.669000
									CHANNELS 3 Xrotation Yrotation Zrotation
									JOINT RightArm
									{
										OFFSET -13.907140 -6.093903 1.965100
										CHANNELS 3 Xrotation Yrotation Zrotation
										JOINT RightForeArm
										{
											OFFSET -34.140198 0.000000 0.000000
											CHANNELS 3 Xrotation Yrotation Zrotation
											JOINT RightHand
											{
												OFFSET -40.960209 0.000000 0.000000
												CHANNELS 3 Xrotation Yrotation Zrotation
												End Site
												{
													OFFSET 0 0 0
												}
											}
										}
									}
								}
							}
						}
					}
				}
			}
		}
	}
}
MOTION
Frames: 7
Frame Time: 0.03333333
-3.429053 115.989342 -1.284277 0.000000 0.000000 0.000000 -6.009953 -17.403074 -0.933126 -0.228345 21.464283 6.811418 12.122593 4.721953 0.930697 -8.966044 -1.243299 -2.603646 1.009632 0.580182 -0.048374 0.000000 0.000000 0.000000 -6.272855 -15.149069 -0.739394 -13.019538 -8.715053 -10.583768 17.135114 -11.195175 -0.452917 3.828269 -2.265417 6.115216 -4.145365 -0.121225 -0.136956 0.000000 0.000000 0.000000 -6.497606 -18.055735 -1.365977 8.972352 2.549020 -0.380954 -4.777875 1.515288 -0.737346 0.624656 0.820424 0.117150 0.000000 0.000000 0.000000 -5.529592 3.852185 -1.503431 4.589345 2.358652 0.730471 2.157927 -5.655831 5.266138 0.000000 0.000000 0.000000 -5.839765 3.824599 -1.731326 2.581833 -12.307981 -1.390661 -1.059215 -2.163253 -0.070953 15.467320 6.465823 -72.367377 3.134206 -7.740536 0.881017 0.000000 0.000000 0.000000 -4.483091 3.999253 -1.499843 0.136759 1.450931 4.610624 -3.268808 -3.596026 -1.063144 -2.017023 5.056074 80.373944 2.511231 21.844022 2.219925 0.000000 0.000000 0.000000 
-3.341773 115.916344 -1.311010 0.000000 0.000000 0.000000 -5.997635 -17.615486 -0.854295 -0.530014 21.332559 6.842506 12.822177 4.698308 0.998795 -9.080164 -1.292370 -2.634621 1.110532 0.560797 -0.065188 0.000000 0.000000 0.000000 -6.211587 -15.311105 -0.684724 -13.138965 -8.849120 -10.480097 16.906752 -11.255259 -0.586060 4.087405 -2.347727 6.395485 -4.471285 -0.083458 -0.133984 0.000000 0.000000 0.000000 -6.525311 -18.118170 -1.333085 8.910024 2.535902 -0.386083 -4.808886 1.496919 -0.784337 0.553509 0.917840 0.076041 0.000000 0.000000 0.000000 -5.677827 3.839546 -1.548471 4.662792 2.371885 0.752898 2.196421 -5.622631 5.229234 0.000000 0.000000 0.000000 -5.852649 3.806228 -1.787138 2.548913 -12.238296 -1.559157 -1.074512 -2.110441 0.022528 15.512890 6.853607 -72.062307 2.945508 -7.593218 0.649509 0.000000 0.000000 0.000000 -4.480751 3.994745 -1.547611 0.098683 1.563044 4.803667 -3.174231 -3.529547 -1.082283 -2.018427 5.019720 80.664520 2.553103 22.334232 2.241288 0.000000 0.000000 0.000000 
-3.200829 115.753738 -1.387217 0.000000 0.000000 0.000000 -5.875655 -17.742627 -0.831197 -1.427011 21.043700 7.125330 14.444336 4.487041 1.121006 -9.316742 -1.585879 -2.572160 1.066090 0.528619 -0.116492 0.000000 0.000000 0.000000 -6.127731 -15.312258 -0.716922 -13.247828 -9.312882 -10.307765 16.804393 -11.178665 -0.751856 3.915302 -2.286266 6.831433 -4.435052 -0.002420 -0.070450 0.000000 0.000000 0.000000 -6.408951 -18.136365 -1.318648 8.835758 2.488906 -0.340913 -4.838079 1.466708 -0.866677 0.540342 0.950210 0.074308 0.000000 0.000000 0.000000 -5.820451 3.814059 -1.623813 4.724293 2.393086 0.727457 2.164261 -5.655935 5.342227 0.000000 0.000000 0.000000 -5.861578 3.775301 -1.852269 2.487113 -12.127112 -1.800617 -1.107595 -2.187513 0.086308 15.547828 7.161161 -71.428493 3.009210 -7.238307 0.534356 0.000000 0.000000 0.000000 -4.473218 3.974533 -1.615158 0.036035 1.620065 5.203688 -3.216560 -3.537002 -1.236541 -2.113021 5.370541 80.825488 2.768137 22.839461 2.303265 0.000000 0.000000 0.000000 
-2.998713 115.529259 -1.603098 0.000000 0.000000 0.000000 -5.662195 -17.756298 -0.835416 -2.762912 20.716802 7.540788 16.585053 4.189490 1.249890 -9.639432 -2.081933 -2.359476 0.914445 0.476668 -0.155313 0.000000 0.000000 0.000000 -6.035120 -15.148216 -0.799490 -13.393825 -10.000486 -10.135833 16.739798 -10.951994 -0.950170 3.373093 -2.106404 7.350798 -3.976099 0.108143 0.048415 0.000000 0.000000 0.000000 -6.151490 -18.122763 -1.333579 8.776689 2.415233 -0.270319 -4.857219 1.438092 -0.961457 0.580939 1.014109 0.115211 0.000000 0.000000 0.000000 -5.943484 3.785471 -1.706240 4.759873 2.416055 0.675009 2.075970 -5.742977 5.576504 0.000000 0.000000 0.000000 -5.856636 3.740783 -1.908598 2.404437 -11.951078 -2.101343 -1.066975 -2.409075 0.121097 15.458233 7.217920 -70.620235 3.284013 -6.764193 0.484377 0.000000 0.000000 0.000000 -4.459559 3.948573 -1.685571 -0.034705 1.614550 5.730911 -3.379789 -3.523981 -1.475618 -2.261694 5.999225 80.729428 3.144218 23.256309 2.425569 0.000000 0.000000 0.000000 
-2.737986 115.295753 -1.974051 0.000000 0.000000 0.000000 -5.376791 -17.706458 -0.833165 -4.182085 20.492758 7.912539 18.737869 3.925535 1.351823 -10.048211 -2.624541 -1.923866 0.755013 0.403073 -0.166917 0.000000 0.000000 0.000000 -5.909425 -14.934139 -0.862720 -13.561617 -10.773867 -9.998761 16.587671 -10.572580 -1.185591 2.640539 -1.837246 7.868947 -3.364539 0.219323 0.215039 0.000000 0.000000 0.000000 -5.817585 -18.127940 -1.368557 8.787889 2.327177 -0.235009 -4.871398 1.424030 -1.042154 0.684911 1.127082 0.168740 0.000000 0.000000 0.000000 -6.030044 3.766507 -1.768256 4.737604 2.440684 0.649176 1.922926 -5.812709 5.871529 0.000000 0.000000 0.000000 -5.855502 3.716673 -1.934832 2.318504 -11.695316 -2.414921 -0.974064 -2.729208 0.243791 15.193715 6.996668 -69.777943 3.656400 -6.320395 0.421057 0.000000 0.000000 0.000000 -4.442535 3.924815 -1.735013 -0.111498 1.520163 6.315069 -3.606377 -3.412205 -1.683328 -2.403545 6.756801 80.302869 3.655217 23.473258 2.631880 0.000000 0.000000 0.000000 
-2.417798 115.075325 -2.467268 0.000000 0.000000 0.000000 -5.046965 -17.679460 -0.788994 -5.369635 20.540648 8.072373 20.408045 3.793087 1.384935 -10.528613 -3.042574 -1.276482 0.706814 0.323554 -0.170219 0.000000 0.000000 0.000000 -5.732230 -14.849359 -0.863917 -13.877527 -11.524209 -9.970504 16.289984 -10.069176 -1.445295 2.095280 -1.526964 8.286057 -2.932292 0.295301 0.386729 0.000000 0.000000 0.000000 -5.502998 -18.270276 -1.418544 8.916656 2.234594 -0.294044 -4.896304 1.434844 -1.076514 0.770874 1.252109 0.241986 0.000000 0.000000 0.000000 -6.076008 3.761829 -1.777250 4.638022 2.478602 0.693296 1.715313 -5.794660 6.155037 0.000000 0.000000 0.000000 -5.862146 3.711834 -1.909627 2.248922 -11.324097 -2.689403 -0.877015 -3.011692 0.433167 14.724839 6.584262 -69.011863 3.949498 -6.045110 0.243445 0.000000 0.000000 0.000000 -4.422333 3.913013 -1.737581 -0.194641 1.351896 6.880704 -3.862479 -3.259196 -1.817193 -2.494844 7.465552 79.494967 4.258179 23.429190 2.936660 0.000000 0.000000 0.000000 
-2.093024 114.897614 -2.969736 0.000000 0.000000 0.000000 -4.774046 -17.911678 -0.699152 -6.041495 20.947476 7.977155 21.224724 3.798812 1.372402 -10.982637 -3.237731 -0.567786 0.724985 0.250680 -0.173412 0.000000 0.000000 0.000000 -5.577504 -15.068758 -0.796260 -14.546437 -12.146563 -10.064880 15.902948 -9.489262 -1.661210 2.116738 -1.226692 8.543784 -2.845827 0.286332 0.530431 0.000000 0.000000 0.000000 -5.320203 -18.601397 -1.459069 9.238693 2.139034 -0.515356 -4.943139 1.471420 -1.034976 0.804798 1.323753 0.334697 0.000000 0.000000 0.000000 -6.080045 3.772138 -1.705413 4.449770 2.548662 0.840259 1.447678 -5.632164 6.357765 0.000000 0.000000 0.000000 -5.879665 3.727919 -1.812491 2.194305 -10.829190 -2.887830 -0.770947 -3.251069 0.628800 14.074223 6.132543 -68.385240 4.011450 -5.945716 -0.126190 0.000000 0.000000 0.000000 -4.415994 3.915572 -1.661972 -0.293563 1.146078 7.396706 -4.090069 -3.115504 -1.856065 -2.524910 8.045159 78.388619 4.897710 23.166456 3.343166 0.000000 0.000000 0.000000 
